# xmcd
#
# Track frame offsets:
#	150
#	13495
#	36255
#	48180
#	65157
#	78537
#	94075
#	112210
#	125650
#	145690
#
# Disc length: 2090
#
# Revision: 1
# Processed by: cddbd v1.5.1PL0 Copyright (c) Steve Scherf et al.
# Submitted via: CDex 1.40Beta9
# Normalized: r0:TDELIM( - )
#
DISCID=9308280a
DTITLE=Various Artist - Travelin' Blues
DYEAR=1900
DGENRE=Blues
TTITLE0=Big Maybelle - I Won't Cry Anymore
TTITLE1=B. B. King - Every Day I Have The Blues
TTITLE2=Leadbelly - Blue Tail Fly
TTITLE3=Joe Liggins - Boom Chick A Boogie
TTITLE4=Dinah Washington - Rich Man's Blues
TTITLE5=Eddie "Clean Head" Vinson - Cleanhead Blues
TTITLE6=Gatemouth Moore - Boogie Woogie Papa
TTITLE7=John Lee Hooker - Trouble Blues
TTITLE8=Lightnin' Hopkins - Shine On Moon
TTITLE9=Ray Charles - A Sentimental Blues
EXTD=ID3G: 0
EXTT0=
EXTT1=
EXTT2=
EXTT3=
EXTT4=
EXTT5=
EXTT6=
EXTT7=
EXTT8=
EXTT9=
PLAYORDER=
